Coordinates
version=1
nRows=19
nColumns=18
inDegrees=yes

Units are S.I. units (second, meters, Newtons, ...)
If the header above contains a line with 'inDegrees', this indicates whether rotational values are in degrees (yes) or radians (no).

endheader
time	ground_thorax_rot_x	ground_thorax_rot_y	ground_thorax_rot_z	ground_thorax_tx	ground_thorax_ty	ground_thorax_tz	clav_prot	clav_elev	scapula_abduction	scapula_elevation	scapula_upward_rot	scapula_winging	plane_elv	shoulder_elv	axial_rot	elbow_flexion	pro_sup
      0.00000000	      3.55313525	    -13.84401888	    -12.98857316	     -0.00854707	      0.00794035	      0.03356406	    -20.06872015	    -13.85713138	     -9.28581268	    -11.94449800	     15.63194117	     22.81398328	    -17.00000000	     17.74131010	     38.81474513	      0.00120871	     -0.00000000
      0.02000000	      3.69810255	    -13.72542119	    -12.96445938	     -0.00845218	      0.00800208	      0.03372684	    -20.19719502	    -13.78651297	     -9.46776638	    -11.90886755	     15.67438476	     22.80434506	    -17.00000000	     17.71189023	     39.32454533	      0.00120871	     -0.00000000
      0.04000000	      3.68190017	    -13.69453479	    -12.93309842	     -0.00853563	      0.00794505	      0.03378909	    -20.12924826	    -13.75397244	     -9.40590138	    -11.87032147	     15.62873240	     22.77801436	    -17.00000000	     17.72422477	     38.82778167	      0.00120871	     -0.00000000
      0.06000000	      3.69015944	    -13.52383103	    -13.02534766	     -0.00865251	      0.00781473	      0.03361759	    -20.12150998	    -13.74845385	     -9.38710660	    -11.86966541	     15.64431216	     22.77081002	    -17.00000000	     17.74308265	     38.75395764	      0.00120871	     -0.00000000
      0.08000000	      3.67994273	    -13.50404498	    -12.98801626	     -0.00876052	      0.00778228	      0.03370526	    -20.05831328	    -13.71622982	     -9.33204577	    -11.83154318	     15.59854821	     22.74580418	    -17.00000000	     17.75037307	     38.27669383	      0.00120871	     -0.00000000
      0.10000000	      3.98545808	    -13.16455440	    -12.86293902	     -0.00882988	      0.00781799	      0.03367250	    -20.43573177	    -13.44043423	     -9.85515407	    -11.68980177	     15.77763076	     22.67584367	    -17.00000000	     17.58900876	     39.41666958	      0.00120871	     -0.00000000
      0.12000000	      3.97494613	    -13.14871351	    -12.82708470	     -0.00904083	      0.00781726	      0.03375713	    -20.36936431	    -13.41482665	     -9.79135216	    -11.65725065	     15.73531049	     22.65326266	    -17.00000000	     17.60168752	     38.92177729	      0.00120871	     -0.00000000
      0.14000000	      3.96490792	    -13.12828005	    -12.79056345	     -0.00932596	      0.00782536	      0.03381619	    -20.30478699	    -13.39308366	     -9.72623166	    -11.62880746	     15.69771850	     22.63226765	    -17.00000000	     17.61779693	     38.44692929	      0.00120871	     -0.00000000
      0.16000000	      3.99534030	    -13.09295387	    -12.93591206	     -0.00949427	      0.00781952	      0.03385220	    -20.33841064	    -13.49578098	     -9.69035524	    -11.72888404	     15.78968752	     22.67669689	    -17.00000000	     17.62309149	     38.85111270	      0.00120871	     -0.00000000
      0.18000000	      3.97324585	    -13.07673076	    -12.88048034	     -0.00988658	      0.00783317	      0.03387513	    -20.27393723	    -13.46711776	     -9.63009049	    -11.69427662	     15.74769311	     22.65291088	    -17.00000000	     17.63433786	     38.37327842	      0.00120871	     -0.00000000
      0.20000000	      3.96849261	    -13.11341404	    -12.83428831	     -0.01003719	      0.00786584	      0.03419215	    -20.39420190	    -13.49350324	     -9.78898468	    -11.72292034	     15.76098554	     22.69432121	    -17.00000000	     17.48310486	     39.47742067	      0.00120871	     -0.00000000
      0.22000000	      3.95186101	    -13.08631353	    -12.78377025	     -0.01052776	      0.00789214	      0.03418485	    -20.32891227	    -13.46746506	     -9.72368542	    -11.69146518	     15.72416320	     22.67081027	    -17.00000000	     17.50978640	     38.98583756	      0.00120871	     -0.00000000
      0.24000000	      4.07726388	    -13.01302265	    -12.74081852	     -0.01091972	      0.00799328	      0.03420370	    -20.41195621	    -13.40539639	     -9.83318282	    -11.66179216	     15.77385151	     22.65316802	    -17.00000000	     17.51664516	     39.69047892	      0.00120871	     -0.00000000
      0.26000000	      4.05869305	    -12.99850262	    -12.68940293	     -0.01143850	      0.00803453	      0.03422326	    -20.34929859	    -13.38352208	     -9.76826168	    -11.63444202	     15.74070889	     22.63189732	    -17.00000000	     17.54572733	     39.19376682	      0.00120871	     -0.00000000
      0.28000000	      4.04491940	    -12.98568983	    -12.64262974	     -0.01196892	      0.00807535	      0.03424519	    -20.28601790	    -13.36541194	     -9.69961468	    -11.61054894	     15.71045108	     22.61184496	    -17.00000000	     17.57975797	     38.70572534	      0.00120871	     -0.00000000
      0.30000000	      4.10116096	    -13.00154012	    -12.69163533	     -0.01222454	      0.00816324	      0.03439971	    -20.38168961	    -13.43361323	     -9.78038920	    -11.68138395	     15.77472654	     22.65929874	    -17.00000000	     17.56175338	     39.78220691	      0.00120871	     -0.00000000
      0.32000000	      4.07986590	    -12.98542692	    -12.64386528	     -0.01272520	      0.00818642	      0.03443158	    -20.31795203	    -13.40926730	     -9.71609558	    -11.65155739	     15.73913062	     22.63689258	    -17.00000000	     17.59030847	     39.28101131	      0.00120871	     -0.00000000
      0.34000000	      4.09703825	    -12.98016226	    -12.73006069	     -0.01308315	      0.00824851	      0.03444600	    -20.31277876	    -13.48731547	     -9.66376175	    -11.71802319	     15.77598530	     22.66821322	    -17.00000000	     17.65897622	     39.38113495	      0.00120871	     -0.00000000
      0.36000000	      4.07180247	    -12.96551791	    -12.68492875	     -0.01352056	      0.00826254	      0.03448338	    -20.24907900	    -13.45845365	     -9.60337565	    -11.68383809	     15.73617906	     22.64418109	    -17.00000000	     17.68095515	     38.89292116	      0.00120871	     -0.00000000
